<svg width="693" height="560" viewBox="0 0 693 560" fill="none" xmlns="http://www.w3.org/2000/svg">
<g clip-path="url(#clip0_190_1625)">
<path d="M493.58 195.96C494.271 196.276 494.935 196.646 495.567 197.068L558.721 170.114L560.974 153.478L586.209 153.323L584.718 191.481L501.361 213.528C501.185 214.107 500.975 214.675 500.73 215.228C499.525 217.8 497.586 219.958 495.159 221.431C492.731 222.905 489.922 223.628 487.084 223.51C484.247 223.393 481.507 222.439 479.21 220.77C476.912 219.1 475.159 216.789 474.171 214.127C473.183 211.464 473.003 208.569 473.655 205.805C474.307 203.041 475.76 200.531 477.834 198.59C479.908 196.649 482.508 195.365 485.31 194.897C488.111 194.43 490.988 194.801 493.579 195.963L493.58 195.96Z" fill="#E1E3E6"/>
<path d="M595.386 541.721H578.123L569.911 475.137H595.388L595.386 541.721Z" fill="#E1E3E6"/>
<path d="M565.793 536.789H599.085V557.744H544.831C544.831 552.185 547.04 546.853 550.971 542.922C554.902 538.99 560.234 536.782 565.793 536.782V536.789Z" fill="#2F2E41"/>
<path d="M662.522 536.844L645.344 538.534L630.644 473.076L655.999 470.585L662.522 536.844Z" fill="#E1E3E6"/>
<path d="M632.578 534.84L665.704 531.577L667.758 552.434L613.777 557.751C613.232 552.22 614.907 546.699 618.432 542.402C621.958 538.106 627.046 535.385 632.577 534.84H632.578Z" fill="#2F2E41"/>
<path d="M600.191 82.854C619.291 82.854 634.774 67.3707 634.774 48.271C634.774 29.1713 619.291 13.688 600.191 13.688C581.091 13.688 565.608 29.1713 565.608 48.271C565.608 67.3707 581.091 82.854 600.191 82.854Z" fill="#E1E3E6"/>
<path d="M574.265 528.255C572.781 528.258 571.344 527.737 570.207 526.784C569.069 525.83 568.305 524.507 568.048 523.045C559.119 473.455 529.907 311.273 529.208 306.777C529.192 306.674 529.185 306.569 529.185 306.465V294.371C529.184 293.931 529.322 293.501 529.578 293.143L533.436 287.743C533.62 287.483 533.86 287.268 534.139 287.116C534.419 286.963 534.729 286.877 535.047 286.863C557.047 285.832 629.083 282.809 632.563 287.157C636.058 291.522 634.816 304.768 634.534 307.377L634.548 307.649L666.914 514.631C667.167 516.282 666.76 517.966 665.781 519.32C664.802 520.673 663.329 521.586 661.681 521.861L641.467 525.191C639.962 525.433 638.419 525.126 637.121 524.327C635.822 523.528 634.853 522.289 634.391 520.836C628.139 500.858 607.175 433.652 599.909 407.646C599.87 407.475 599.768 407.324 599.623 407.225C599.478 407.125 599.3 407.084 599.126 407.109C598.952 407.134 598.794 407.224 598.683 407.361C598.572 407.497 598.517 407.67 598.528 407.846C598.891 432.636 599.768 495.882 600.077 517.727L600.109 520.08C600.122 521.673 599.538 523.213 598.471 524.395C597.404 525.578 595.932 526.317 594.346 526.467L574.854 528.233C574.658 528.25 574.462 528.257 574.265 528.255Z" fill="#2F2E41"/>
<path d="M578.243 96.453C572.208 100.041 568.596 106.633 566.524 113.353C562.687 125.774 560.378 138.616 559.647 151.595L557.456 190.454L530.343 293.482C553.843 313.365 567.396 308.845 599.029 292.582C630.662 276.319 634.276 298.004 634.276 298.004L640.601 210.341L649.638 114.548C647.609 112.105 645.313 109.898 642.792 107.967C634.439 101.47 624.721 96.9541 614.369 94.7589C604.017 92.5637 593.302 92.7466 583.031 95.294L578.243 96.453Z" fill="#E6E6E6"/>
<path d="M569.437 216.767C570.166 217.04 570.872 217.369 571.549 217.753L633.996 186.494L635.032 169.561L660.791 167.785L662.171 206.385L578.721 233.985C578.04 236.909 576.485 239.557 574.263 241.576C572.04 243.595 569.256 244.889 566.28 245.286C563.304 245.684 560.277 245.166 557.603 243.801C554.928 242.437 552.733 240.29 551.308 237.647C549.884 235.004 549.297 231.99 549.628 229.006C549.958 226.021 551.19 223.208 553.158 220.941C555.126 218.674 557.738 217.059 560.646 216.313C563.554 215.566 566.621 215.723 569.438 216.762L569.437 216.767Z" fill="#E1E3E6"/>
<path d="M649.188 114.98C664.551 120.402 667.259 179.151 667.259 179.151C649.184 169.21 627.494 185.477 627.494 185.477C627.494 185.477 622.976 170.112 617.553 150.231C615.916 144.638 615.72 138.723 616.984 133.034C618.248 127.345 620.93 122.069 624.782 117.696C624.782 117.696 633.823 109.555 649.188 114.98Z" fill="#E6E6E6"/>
<path d="M631.194 57.4139C626.885 53.9669 621.007 60.2299 621.007 60.2299L617.56 29.2139C617.56 29.2139 596.017 31.7949 582.226 28.3519C568.435 24.9089 566.283 40.8519 566.283 40.8519C565.572 34.4133 565.428 27.9247 565.852 21.4609C566.714 13.7049 577.916 5.94892 597.737 0.777922C617.558 -4.39308 627.899 18.0139 627.899 18.0139C641.695 24.9029 635.508 60.8649 631.194 57.4139Z" fill="#2F2E41"/>
<path d="M693.385 557.75H-44V559.94H693.385V557.75Z" fill="#E6E6E6"/>
<path d="M27.135 519.076C30.2903 520.185 33.6781 520.463 36.972 519.883C40.2658 519.303 43.3547 517.884 45.941 515.763C52.528 510.235 54.593 501.127 56.273 492.693L61.243 467.748L50.838 474.913C43.355 480.065 35.704 485.383 30.522 492.846C25.34 500.309 23.079 510.497 27.242 518.572" fill="#E6E6E6"/>
<path d="M28.7421 551.013C27.4321 541.471 26.0851 531.807 27.0041 522.163C27.8201 513.598 30.433 505.233 35.753 498.374C38.5767 494.74 42.0126 491.627 45.9061 489.174C46.9211 488.533 47.8561 490.142 46.8451 490.78C40.1067 495.037 34.8945 501.324 31.96 508.735C28.72 516.976 28.2001 525.959 28.7601 534.712C29.0981 540.006 29.8131 545.265 30.5341 550.517C30.5908 550.755 30.5552 551.005 30.4346 551.217C30.3139 551.429 30.1172 551.588 29.8841 551.661C29.6462 551.725 29.3927 551.693 29.1786 551.571C28.9644 551.449 28.8069 551.248 28.74 551.011L28.7421 551.013Z" fill="#F2F2F2"/>
<path d="M38.1689 535.703C39.5222 537.76 41.3823 539.433 43.5701 540.563C45.7578 541.692 48.1995 542.239 50.6599 542.15C56.9829 541.85 62.2549 537.437 66.9999 533.25L81.0359 520.858L71.7469 520.414C65.0669 520.094 58.214 519.796 51.847 521.856C45.48 523.916 39.6159 528.874 38.4529 535.456" fill="#E6E6E6"/>
<path d="M25.0399 556.498C31.3399 545.342 38.6579 532.943 51.7249 528.98C55.3582 527.882 59.1679 527.489 62.9489 527.821C64.1409 527.921 63.8429 529.761 62.6489 529.658C56.3111 529.132 49.9854 530.805 44.737 534.397C39.686 537.835 35.754 542.614 32.426 547.683C30.387 550.783 28.5609 554.024 26.7349 557.256C26.1529 558.288 24.4529 557.543 25.0399 556.498Z" fill="#F2F2F2"/>
<path d="M80.1601 52.569C78.6268 52.5706 77.1568 53.1802 76.0725 54.2643C74.9882 55.3483 74.3782 56.8181 74.3762 58.3513L74.3269 416.903C74.3285 418.436 74.9381 419.906 76.0221 420.99C77.1062 422.074 78.576 422.685 80.1092 422.686L450.225 422.737C451.758 422.736 453.228 422.126 454.312 421.042C455.397 419.958 456.007 418.488 456.009 416.955L456.058 58.4037C456.056 56.8705 455.447 55.4005 454.363 54.3162C453.279 53.2319 451.809 52.6218 450.276 52.6198L80.1601 52.569Z" fill="#E6E6E6"/>
<path d="M88.8203 408.195L441.517 408.244L441.564 67.1107L88.8672 67.0622L88.8203 408.195Z" fill="white"/>
<path d="M120.273 121.414C117.92 121.414 116.005 124.786 116.004 128.932C116.004 133.077 117.918 136.45 120.271 136.45L281.131 136.472C283.484 136.473 285.399 133.1 285.399 128.955C285.4 124.81 283.486 121.437 281.133 121.436L120.273 121.414Z" fill="#E6E6E6"/>
<path d="M120.267 167.678C117.914 167.678 115.999 171.05 115.998 175.196C115.998 179.341 117.912 182.714 120.265 182.714L281.125 182.736C283.478 182.737 285.393 179.364 285.393 175.219C285.394 171.074 283.48 167.701 281.127 167.7L120.267 167.678Z" fill="#E6E6E6"/>
<path d="M120.26 213.409C117.907 213.409 115.992 216.781 115.992 220.927C115.991 225.072 117.905 228.445 120.258 228.445L281.118 228.467C283.471 228.468 285.386 225.095 285.387 220.95C285.387 216.805 283.473 213.432 281.12 213.431L120.26 213.409Z" fill="#E6E6E6"/>
<path d="M120.254 259.674C117.901 259.673 115.986 263.046 115.985 267.191C115.985 271.336 117.899 274.709 120.252 274.71L281.112 274.732C283.465 274.732 285.38 271.36 285.38 267.214C285.381 263.069 283.467 259.696 281.114 259.696L120.254 259.674Z" fill="#E6E6E6"/>
<path d="M362.629 121.942C361.641 121.941 360.662 122.134 359.749 122.511C358.836 122.888 358.006 123.442 357.307 124.14C356.608 124.838 356.053 125.667 355.675 126.58C355.296 127.493 355.101 128.471 355.101 129.459C355.101 130.447 355.296 131.425 355.674 132.338C356.052 133.251 356.607 134.08 357.306 134.778C358.004 135.477 358.834 136.03 359.747 136.408C360.66 136.785 361.639 136.979 362.627 136.978L392.699 136.982C394.693 136.982 396.605 136.19 398.015 134.781C399.425 133.371 400.218 131.459 400.218 129.465C400.218 127.471 399.426 125.559 398.017 124.149C396.607 122.739 394.695 121.946 392.701 121.946L362.629 121.942Z" fill="#E6E6E6"/>
<path d="M362.623 167.31C361.635 167.308 360.656 167.502 359.743 167.879C358.83 168.256 358 168.81 357.301 169.508C356.602 170.206 356.047 171.035 355.669 171.948C355.29 172.86 355.095 173.839 355.095 174.827C355.095 175.815 355.29 176.793 355.668 177.706C356.046 178.618 356.601 179.448 357.299 180.146C357.998 180.844 358.828 181.398 359.741 181.775C360.654 182.153 361.633 182.347 362.621 182.346L392.693 182.35C394.687 182.35 396.599 181.558 398.009 180.148C399.419 178.739 400.211 176.827 400.212 174.833C400.212 172.839 399.42 170.926 398.01 169.516C396.601 168.106 394.689 167.314 392.695 167.314L362.623 167.31Z" fill="#E6E6E6"/>
<path d="M362.616 212.677C361.629 212.677 360.651 212.871 359.739 213.249C358.827 213.627 357.998 214.18 357.3 214.878C356.602 215.576 356.048 216.405 355.67 217.317C355.292 218.229 355.097 219.207 355.097 220.194C355.097 221.181 355.291 222.159 355.669 223.071C356.047 223.983 356.6 224.812 357.298 225.51C357.996 226.209 358.825 226.763 359.737 227.14C360.649 227.518 361.627 227.713 362.614 227.713L392.686 227.717C394.68 227.718 396.592 226.926 398.002 225.516C399.413 224.106 400.205 222.194 400.205 220.2C400.205 218.206 399.414 216.294 398.004 214.884C396.594 213.474 394.682 212.682 392.688 212.681L362.616 212.677Z" fill="#E6E6E6"/>
<path d="M362.61 258.045C360.618 258.047 358.708 258.84 357.3 260.249C355.892 261.659 355.1 263.57 355.1 265.562C355.1 267.554 355.89 269.465 357.298 270.875C358.706 272.285 360.616 273.078 362.608 273.081L392.68 273.085C394.673 273.083 396.583 272.29 397.991 270.881C399.399 269.471 400.19 267.561 400.191 265.568C400.191 263.576 399.4 261.665 397.993 260.255C396.585 258.845 394.675 258.052 392.682 258.049L362.61 258.045Z" fill="#E6E6E6"/>
<path d="M353.436 334.116C352.177 334.114 350.93 334.361 349.766 334.841C348.603 335.322 347.545 336.027 346.655 336.917C345.764 337.806 345.057 338.863 344.575 340.026C344.092 341.188 343.844 342.435 343.844 343.694C343.844 344.953 344.092 346.199 344.574 347.362C345.056 348.525 345.762 349.582 346.653 350.472C347.543 351.362 348.6 352.067 349.764 352.548C350.927 353.029 352.174 353.276 353.433 353.275L391.751 353.28C394.292 353.28 396.728 352.271 398.525 350.475C400.322 348.679 401.332 346.242 401.332 343.702C401.332 341.161 400.323 338.724 398.527 336.928C396.731 335.131 394.294 334.121 391.754 334.121L353.436 334.116Z" fill="#898E99"/>
<path d="M400.054 308.481L116.506 308.442L116.506 310.963L400.054 311.002L400.054 308.481Z" fill="#E6E6E6"/>
</g>
<defs>
<clipPath id="clip0_190_1625">
<rect width="693" height="560" fill="white"/>
</clipPath>
</defs>
</svg>
